Coordinates
version=1
nRows=17
nColumns=27
inDegrees=yes

Units are S.I. units (second, meters, Newtons, ...)
If the header above contains a line with 'inDegrees', this indicates whether rotational values are in degrees (yes) or radians (no).

endheader
time	pelvis_rotation	pelvis_tilt	pelvis_list	pelvis_tx	pelvis_ty	pelvis_tz	hip_flexion_r	hip_adduction_r	hip_rotation_r	knee_angle_r	knee_rotation_r	knee_adduction_r	knee_angle_r_beta	ankle_angle_r	subtalar_angle_r	mtp_angle_r	hip_flexion_l	hip_adduction_l	hip_rotation_l	knee_angle_l	knee_rotation_l	knee_adduction_l	knee_angle_l_beta	ankle_angle_l	subtalar_angle_l	mtp_angle_l
      3.27500000	      7.19057605	    -40.99115833	      5.66892349	     -0.04812363	      0.53835028	     -1.17697761	    125.18882639	    -47.86403105	     11.66196438	     96.02073343	      0.00000000	      9.89248534	      1.67587795	     14.50508211	      0.00000000	      0.00000000	    119.11573937	    -36.24663476	      3.81182853	     90.08806222	      0.00000000	     -9.93068144	      1.57233330	      6.30240891	      0.00000000	      0.00000000
      3.28000000	      7.11685393	    -40.95107809	      5.47803150	     -0.04796758	      0.53677969	     -1.17695224	    125.24391869	    -47.92160076	     11.65887695	     96.24636711	      0.00000000	      9.89278626	      1.67981600	     14.58811865	      0.00000000	      0.00000000	    119.46906853	    -36.23547647	      4.20912678	     90.35694576	      0.00000000	     -9.93088305	      1.57702621	      6.37687773	      0.00000000	      0.00000000
      3.28500000	      7.06512191	    -40.88490589	      5.31897572	     -0.04778479	      0.53522975	     -1.17693048	    125.30658216	    -47.98492990	     11.69640281	     96.47882729	      0.00000000	      9.89319261	      1.68387319	     14.66365710	      0.00000000	      0.00000000	    119.76963893	    -36.21022301	      4.57196105	     90.61713776	      0.00000000	     -9.93104349	      1.58156741	      6.41135610	      0.00000000	      0.00000000
      3.29000000	      7.09339564	    -40.87900218	      5.58142472	     -0.04767397	      0.53364370	     -1.17697614	    125.91574512	    -47.84420307	     12.32206527	     96.73667674	      0.00000000	      9.89353208	      1.68837352	     14.68397136	      0.00000000	      0.00000000	    119.80733476	    -36.34360067	      4.43966866	     90.83909609	      0.00000000	     -9.93119105	      1.58544132	      6.54910368	      0.00000000	      0.00000000
      3.29500000	      7.04335245	    -40.82492193	      5.55767237	     -0.04750063	      0.53206075	     -1.17699012	    126.14553644	    -47.81462928	     12.55375729	     96.98100991	      0.00000000	      9.89385537	      1.69263793	     14.76086470	      0.00000000	      0.00000000	    120.01763414	    -36.39362254	      4.64245253	     91.09948975	      0.00000000	     -9.93137846	      1.58998604	      6.63199015	      0.00000000	      0.00000000
      3.30000000	      7.01343188	    -40.74139614	      5.44589849	     -0.04732365	      0.53042386	     -1.17698198	    126.25902344	    -47.86666524	     12.67804261	     97.22931571	      0.00000000	      9.89413156	      1.69697169	     14.84802785	      0.00000000	      0.00000000	    120.28515479	    -36.35339310	      4.98093246	     91.36411737	      0.00000000	     -9.93159939	      1.59460467	      6.70463379	      0.00000000	      0.00000000
      3.30500000	      6.99590178	    -40.70360797	      5.54373197	     -0.04712270	      0.52886530	     -1.17703463	    126.63910996	    -47.79808671	     13.06188838	     97.47193652	      0.00000000	      9.89461775	      1.70120622	     14.89367756	      0.00000000	      0.00000000	    120.40693839	    -36.44349471	      5.02765320	     91.61205043	      0.00000000	     -9.93170299	      1.59893191	      6.81050199	      0.00000000	      0.00000000
      3.31000000	      6.90067964	    -40.64964673	      5.36356794	     -0.04696032	      0.52721563	     -1.17703136	    126.70919958	    -47.82283724	     13.08861232	     97.70307952	      0.00000000	      9.89488335	      1.70524043	     14.98345031	      0.00000000	      0.00000000	    120.74202143	    -36.43118478	      5.43465451	     91.88874820	      0.00000000	     -9.93188596	      1.60376120	      6.90490470	      0.00000000	      0.00000000
      3.31500000	      6.81725808	    -40.58388445	      5.13362126	     -0.04677111	      0.52556246	     -1.17709408	    126.71673575	    -47.90935312	     13.05189308	     97.91711119	      0.00000000	      9.89507806	      1.70897598	     15.06351329	      0.00000000	      0.00000000	    121.11242849	    -36.37486755	      5.90300969	     92.18033102	      0.00000000	     -9.93211985	      1.60885028	      6.99021924	      0.00000000	      0.00000000
      3.32000000	      6.85812128	    -40.51982860	      5.46546221	     -0.04655474	      0.52395231	     -1.17716110	    127.34011338	    -47.73278867	     13.77577501	     98.20167524	      0.00000000	      9.89567049	      1.71394256	     15.09264858	      0.00000000	      0.00000000	    121.02843304	    -36.52201980	      5.68898969	     92.39765398	      0.00000000	     -9.93222723	      1.61264328	      7.10360055	      0.00000000	      0.00000000
      3.32500000	      6.82560003	    -40.44229473	      5.42952922	     -0.04630034	      0.52231114	     -1.17722835	    127.54050445	    -47.75437791	     13.99461579	     98.43961631	      0.00000000	      9.89601944	      1.71809542	     15.20072113	      0.00000000	      0.00000000	    121.23159735	    -36.54108634	      5.90838193	     92.65874603	      0.00000000	     -9.93235032	      1.61720020	      7.20152562	      0.00000000	      0.00000000
      3.33000000	      6.75583211	    -40.38650916	      5.40140844	     -0.04613331	      0.52062278	     -1.17727058	    127.79177250	    -47.68877045	     14.24572685	     98.69296133	      0.00000000	      9.89643446	      1.72251712	     15.23077389	      0.00000000	      0.00000000	    121.45043032	    -36.57666399	      6.14981955	     92.93301547	      0.00000000	     -9.93254035	      1.62198710	      7.29822508	      0.00000000	      0.00000000
      3.33500000	      6.70340858	    -40.31551911	      5.36879445	     -0.04588644	      0.51896289	     -1.17732407	    128.01136233	    -47.66999012	     14.47635575	     98.93834262	      0.00000000	      9.89682486	      1.72679984	     15.30017632	      0.00000000	      0.00000000	    121.65455091	    -36.60973435	      6.37475181	     93.19888422	      0.00000000	     -9.93272629	      1.62662739	      7.39157915	      0.00000000	      0.00000000
      3.34000000	      6.66979872	    -40.25221451	      5.36243114	     -0.04564985	      0.51731930	     -1.17738624	    128.26378564	    -47.64954198	     14.74331929	     99.18423623	      0.00000000	      9.89734748	      1.73109149	     15.35022088	      0.00000000	      0.00000000	    121.84802322	    -36.63479909	      6.57496427	     93.46336067	      0.00000000	     -9.93290287	      1.63124337	      7.48954863	      0.00000000	      0.00000000
      3.34500000	      6.60179634	    -40.16105507	      5.26587580	     -0.04537473	      0.51561443	     -1.17744877	    128.40378240	    -47.66235470	     14.89886948	     99.42585651	      0.00000000	      9.89771999	      1.73530856	     15.43656925	      0.00000000	      0.00000000	    122.08805602	    -36.64998799	      6.87198661	     93.74092266	      0.00000000	     -9.93310331	      1.63608774	      7.56566692	      0.00000000	      0.00000000
      3.35000000	      6.56149991	    -40.11446594	      5.26988906	     -0.04513899	      0.51396210	     -1.17748759	    128.67802140	    -47.61976724	     15.17375965	     99.67129194	      0.00000000	      9.89811926	      1.73959221	     15.49131598	      0.00000000	      0.00000000	    122.29259087	    -36.69698809	      7.05854265	     93.99956490	      0.00000000	     -9.93330606	      1.64060190	      7.67073677	      0.00000000	      0.00000000
      3.35500000	      6.47431303	    -40.06421965	      5.32071091	     -0.04485946	      0.51230105	     -1.17754268	    128.99969086	    -47.48850588	     15.52196131	     99.91816095	      0.00000000	      9.89855678	      1.74390089	     15.55044594	      0.00000000	      0.00000000	    122.43818763	    -36.83387340	      7.16961018	     94.25625036	      0.00000000	     -9.93366913	      1.64508191	      7.83701394	      0.00000000	      0.00000000
